HIERARCHY
ROOT Hips
{
	OFFSET -3.958830 18.904000 13.208200
	CHANNELS 6 Xposition Yposition Zposition Zrotation Yrotation Xrotation 
	JOINT LHipJoint
	{
		OFFSET 0.000000 0.000000 0.000000
		CHANNELS 3 Zrotation Yrotation Xrotation
		JOINT LeftUpLeg
		{
			OFFSET 1.800000 -1.400000 0.085000
			CHANNELS 3 Zrotation Yrotation Xrotation
			JOINT LeftLeg
			{
				OFFSET 2.215000 -6.000000 0.000000
				CHANNELS 3 Zrotation Yrotation Xrotation
				JOINT LeftFoot
				{
					OFFSET 2.500000 -6.900000 0.000000
					CHANNELS 3 Zrotation Yrotation Xrotation
					JOINT LeftToeBase
					{
						OFFSET 0.200000 -0.500000 1.950000
						CHANNELS 3 Zrotation Yrotation Xrotation
						End Site
						{
							OFFSET 0.000000 0.000000 0.000000
						}
					}
				}
			}
		}
	}
	JOINT RHipJoint
	{
		OFFSET 0.000000 0.000000 0.000000
		CHANNELS 3 Zrotation Yrotation Xrotation
		JOINT RightUpLeg
		{
			OFFSET -1.800000 -1.400000 0.085000
			CHANNELS 3 Zrotation Yrotation Xrotation
			JOINT RightLeg
			{
				OFFSET -2.215000 -6.000000 0.000000
				CHANNELS 3 Zrotation Yrotation Xrotation
				JOINT RightFoot
				{
					OFFSET -2.500000 -6.900000 0.000000
					CHANNELS 3 Zrotation Yrotation Xrotation
					JOINT RightToeBase
					{
						OFFSET -0.200000 -0.500000 1.950000
						CHANNELS 3 Zrotation Yrotation Xrotation
						End Site
						{
							OFFSET 0.000000 0.000000 0.000000
						}
					}
				}
			}
		}
	}
	JOINT LowerBack
	{
		OFFSET 0.000000 0.000000 0.000000
		CHANNELS 3 Zrotation Yrotation Xrotation
		JOINT Spine
		{
			OFFSET -0.087000 1.940000 -0.288900
			CHANNELS 3 Zrotation Yrotation Xrotation
			JOINT Spine1
			{
				OFFSET 0.000000 1.950000 0.060000
				CHANNELS 3 Zrotation Yrotation Xrotation
				JOINT Neck
				{
					OFFSET 0.000000 0.000000 0.000000
					CHANNELS 3 Zrotation Yrotation Xrotation
					JOINT Neck1
					{
						OFFSET 0.000000 1.600000 0.340000
						CHANNELS 3 Zrotation Yrotation Xrotation
						JOINT Head
						{
							OFFSET 0.000000 1.667000 -0.240000
							CHANNELS 3 Zrotation Yrotation Xrotation
							End Site
							{
								OFFSET 0.000000 0.000000 0.000000
							}
						}
					}
				}
				JOINT LeftShoulder
				{
					OFFSET 0.000000 0.000000 0.000000
					CHANNELS 3 Zrotation Yrotation Xrotation
					JOINT LeftArm
					{
						OFFSET 2.700000 1.550000 -0.730000
						CHANNELS 3 Zrotation Yrotation Xrotation
						JOINT LeftForeArm
						{
							OFFSET 5.450000 0.000000 0.000000
							CHANNELS 3 Zrotation Yrotation Xrotation
							JOINT LeftHand
							{
								OFFSET 3.450000 0.000000 0.000000
								CHANNELS 3 Zrotation Yrotation Xrotation
								JOINT LeftHandIndex1
								{
									OFFSET 0.750000 0.000000 0.000000
									CHANNELS 3 Zrotation Yrotation Xrotation
									End Site
									{
										OFFSET 0.000000 0.000000 0.000000
									}
								}
							}
						}
					}
				}
				JOINT RightShoulder
				{
					OFFSET 0.000000 0.000000 0.000000
					CHANNELS 3 Zrotation Yrotation Xrotation
					JOINT RightArm
					{
						OFFSET -2.700000 1.550000 -0.730000
						CHANNELS 3 Zrotation Yrotation Xrotation
						JOINT RightForeArm
						{
							OFFSET -5.450000 0.000000 0.000000
							CHANNELS 3 Zrotation Yrotation Xrotation
							JOINT RightHand
							{
								OFFSET -3.450000 0.000000 0.000000
								CHANNELS 3 Zrotation Yrotation Xrotation
								JOINT RightHandIndex1
								{
									OFFSET -0.750000 0.000000 0.000000
									CHANNELS 3 Zrotation Yrotation Xrotation
									End Site
									{
										OFFSET 0.000000 0.000000 0.000000
									}
								}
							}
						}
					}
				}
			}
		}
	}
}
MOTION
Frames: 13
Frame Time: 0.016667
-0.010560 16.172090 -2.274030 -6.659492 -32.512842 2.129761 -15.972098 10.160454 6.265733 38.742185 -7.411028 -31.400240 -40.045495 32.383204 43.450556 1.336416 13.668946 -0.154167 0.797750 0.580080 0.589310 18.280437 -7.054941 3.644505 -10.993942 5.754867 -52.968206 -5.446159 -10.321714 63.473263 -1.504693 -9.191041 1.188353 0.399080 -0.066720 0.084180 -3.257069 -3.893982 -9.731752 1.590052 -6.310951 37.217980 -1.806262 -3.990311 -1.147494 -2.654437 -12.554157 -8.790181 -34.535498 18.880494 25.930191 -3.966020 7.785990 -26.058040 -21.084848 -3.231361 -1.764061 -26.142665 -10.791005 -6.492503 -49.933784 -66.734345 27.915749 -3.432873 3.242968 0.799310 -0.193250 0.243790 0.213690 26.779274 8.586538 5.946726 46.393931 -8.729703 -13.319470 26.942162 23.564132 1.707682 1.976559 -1.278230 -0.189900 0.424760 -0.157890 -0.284300 
-0.019130 16.066920 -2.368610 -6.700752 -32.340813 4.129595 -16.071459 9.665293 6.541409 41.230593 -6.827937 -34.484202 -43.089730 33.876027 42.701676 1.411903 13.794434 -0.155143 0.790290 0.571630 0.591300 18.298353 -6.559704 3.994292 -11.359890 6.740715 -57.030942 -5.624355 -10.684184 65.722405 -1.599802 -9.589858 1.076287 0.392280 -0.072100 0.077520 -3.307142 -3.850343 -10.011506 1.375654 -6.443980 38.963034 -1.685395 -3.923115 -2.563249 -2.519198 -12.726388 -8.881937 -33.936473 18.295407 24.755388 -4.564360 7.357420 -26.584680 -21.862914 -4.537658 -1.941514 -24.136319 -9.684020 -7.978692 -26.919923 -62.341684 12.224965 -3.355883 3.129717 0.802780 -0.202120 0.251420 0.218470 27.466215 9.968361 6.563514 45.733271 -8.967533 -13.328999 25.635420 23.889288 1.582934 1.980166 -1.270119 -0.194140 0.433990 -0.164360 -0.281020 
-0.040410 15.961180 -2.456020 -6.859271 -32.491008 5.774090 -16.156799 9.234816 6.745605 43.764780 -5.826082 -36.585726 -45.880957 35.287100 41.729962 1.481414 13.829476 -0.142259 0.797910 0.574860 0.610480 18.314776 -6.109957 4.346521 -11.772155 8.080826 -60.560943 -5.558939 -11.011459 68.013115 -1.702963 -9.984636 0.966718 0.382580 -0.100230 0.079210 -3.358503 -3.763319 -10.270778 0.934784 -6.283457 40.943651 -1.524424 -3.591964 -4.026549 -2.346545 -12.763071 -9.049336 -32.991981 17.764374 24.167909 -5.138940 7.173780 -27.017000 -22.854184 -6.004803 -1.918467 -21.439057 -8.565189 -8.411602 -10.866194 -54.580069 3.175640 -3.310511 3.001536 0.803070 -0.217580 0.264970 0.215920 28.305446 11.555541 7.096769 44.788812 -8.837406 -12.949452 24.214029 22.679288 1.162233 2.002424 -1.264689 -0.179030 0.413550 -0.181360 -0.283250 
-0.071380 15.857750 -2.542540 -6.856263 -32.309084 6.596776 -16.224684 8.895013 6.909041 46.034878 -4.925849 -38.219682 -48.026540 36.757363 41.402648 1.551090 13.887724 -0.154064 0.788750 0.562060 0.610900 18.328221 -5.745810 4.621813 -12.325754 9.215325 -63.282748 -5.519981 -11.376967 70.463949 -1.809069 -10.418449 0.833331 0.362270 -0.135870 0.096950 -3.381279 -3.694176 -10.490947 0.077938 -6.025323 43.546649 -1.180204 -3.298292 -5.333010 -2.176356 -12.673336 -9.293464 -31.889383 17.318228 23.950025 -5.910140 7.171560 -27.220050 -24.048380 -7.569546 -1.703347 -17.861741 -7.758504 -7.905715 -0.920178 -45.990234 -0.651550 -3.308680 2.922615 0.797620 -0.228940 0.276040 0.197930 29.390857 13.131098 7.621983 43.908088 -8.865219 -12.863220 22.859868 22.743678 1.010087 2.009777 -1.282290 -0.153960 0.365180 -0.178320 -0.287550 
-0.103570 15.764820 -2.612830 -6.886983 -31.393361 6.699160 -16.243795 8.634414 7.028026 47.971753 -4.442689 -39.285303 -49.513233 37.757807 41.301995 1.581287 13.928972 -0.160828 0.774950 0.541870 0.624390 18.361532 -5.541050 4.790136 -13.027218 9.788145 -64.997655 -5.303461 -12.082127 72.943896 -1.923485 -10.878380 0.702700 0.346420 -0.163560 0.094690 -3.439290 -3.531054 -10.651019 -0.376868 -6.123285 46.548658 -1.329238 -3.139207 -6.467698 -1.905852 -12.360727 -9.433901 -30.267781 16.615132 24.436365 -6.525820 7.127920 -27.861220 -25.416092 -9.141511 -1.537236 -13.871756 -8.327018 -6.458692 4.585116 -35.201818 -1.659476 -3.353647 2.812233 0.812710 -0.241710 0.287370 0.177030 30.350393 14.380091 7.983849 43.411914 -8.985653 -12.777921 21.097943 21.786468 0.633488 2.018080 -1.253481 -0.156290 0.351700 -0.174250 -0.303540 
-0.138890 15.676790 -2.662170 -7.002230 -30.516849 6.870409 -16.262466 8.405224 7.146036 49.815363 -3.808577 -40.343096 -50.783580 38.837671 41.373374 1.643540 13.952943 -0.162131 0.788460 0.548250 0.651480 18.391044 -5.363090 4.913242 -13.768430 10.167586 -66.343628 -4.839177 -13.012359 75.023921 -2.038191 -11.300763 0.579193 0.330320 -0.208450 0.114130 -3.486064 -3.398268 -10.784176 -0.581295 -6.412857 48.902475 -1.498645 -3.075595 -7.192938 -1.610650 -12.206888 -9.694690 -29.296133 15.929175 24.629293 -7.213020 6.880760 -28.419180 -26.359330 -10.198481 -1.030968 -11.337849 -8.402475 -5.125918 8.058603 -25.680903 -1.862925 -3.402861 2.769294 0.811100 -0.261590 0.310780 0.165270 30.820578 15.336673 8.099892 43.203039 -8.782327 -12.456669 19.068219 19.904639 0.181659 2.055776 -1.239345 -0.121450 0.305860 -0.190830 -0.307150 
-0.175860 15.599680 -2.689040 -6.883099 -29.554843 6.429908 -16.260653 8.271816 7.206517 50.935577 -3.560887 -40.854973 -51.256779 39.769790 41.982040 1.662303 14.027966 -0.183607 0.776170 0.526340 0.667660 18.417091 -5.277348 4.981290 -14.489988 10.240617 -67.056044 -4.578606 -13.859981 77.001612 -2.139044 -11.688639 0.472579 0.316480 -0.232190 0.110250 -3.518358 -3.268433 -10.880733 -1.007699 -6.530302 50.980911 -1.894705 -3.078388 -7.693498 -1.261825 -11.693104 -9.844999 -27.654457 15.496444 25.673254 -7.549620 7.103940 -29.135100 -27.262598 -11.171072 -0.569623 -9.220240 -8.787447 -3.887975 9.643712 -16.469347 -1.652137 -3.491868 2.676926 0.837300 -0.274410 0.322260 0.144870 31.067800 15.897071 8.037788 43.268799 -8.602785 -11.914929 16.977226 16.765362 -0.319574 2.092953 -1.171777 -0.132400 0.298230 -0.185700 -0.328760 
-0.212530 15.543190 -2.697020 -7.052957 -28.731566 5.764341 -16.243128 8.202353 7.234901 51.887807 -3.255930 -40.716111 -51.019603 40.517235 42.838956 1.681720 14.097024 -0.192156 0.769080 0.521760 0.674840 18.443589 -5.267973 4.999187 -15.073427 10.358673 -66.905553 -3.849155 -14.998102 78.517902 -2.235228 -12.040034 0.400667 0.313170 -0.235670 0.090860 -3.562067 -3.102547 -10.938442 -1.003173 -6.766163 52.748584 -2.440385 -3.026001 -8.166133 -0.952680 -11.214526 -9.858577 -26.323295 15.107949 26.944499 -7.447840 7.209550 -29.512540 -28.364221 -11.805111 -0.293622 -8.024812 -9.042209 -3.098633 10.398140 -9.288091 -1.436440 -3.579378 2.578274 0.851440 -0.278610 0.326500 0.143050 31.494508 16.179214 7.893955 43.148500 -8.366335 -11.349650 14.891794 14.492261 -0.579560 2.118182 -1.112908 -0.147920 0.316940 -0.190830 -0.338470 
-0.272420 15.501520 -2.691000 -6.915094 -28.399885 4.698664 -16.234820 8.228873 7.216810 52.359570 -2.842627 -39.893691 -50.237483 41.283582 43.905259 1.698751 14.170885 -0.213912 0.750380 0.503280 0.671450 18.448464 -5.290201 4.988458 -15.199523 10.791770 -66.207357 -3.831603 -15.423417 80.009759 -2.318464 -12.302068 0.341733 0.296620 -0.242240 0.090280 -3.557801 -3.013524 -10.971416 -1.572819 -6.327333 53.664603 -2.658056 -2.866105 -8.399037 -0.750919 -10.709608 -9.837870 -25.380902 14.967743 28.671283 -7.703720 7.525520 -29.854570 -29.171989 -11.922207 -0.034047 -8.171469 -8.616332 -2.703911 11.127087 -4.584003 -1.288443 -3.644520 2.521706 0.870550 -0.282790 0.337680 0.133340 31.842127 16.098289 7.622956 43.784657 -8.225488 -11.028715 11.886632 12.966508 -0.661988 2.146029 -1.059653 -0.155250 0.317680 -0.182790 -0.346500 
-0.331580 15.487130 -2.660010 -7.115544 -27.908863 3.216401 -16.183894 8.332671 7.161766 52.295536 -2.683684 -38.373480 -48.273121 41.689684 45.683434 1.741752 14.275715 -0.249423 0.741310 0.498460 0.669340 18.468801 -5.467504 4.882194 -14.773548 11.208010 -64.230565 -3.866103 -15.738601 81.087254 -2.391177 -12.478189 0.312367 0.274220 -0.259670 0.092230 -3.607735 -2.813025 -10.943626 -1.267095 -6.369158 54.427635 -3.443235 -2.746614 -8.603535 -0.447131 -10.304388 -9.927134 -25.160389 14.962152 31.041477 -7.698180 7.690810 -29.864720 -29.959834 -11.935546 0.208448 -9.049588 -7.793136 -2.585953 11.855642 -1.693696 -1.140071 -3.670235 2.502948 0.877390 -0.295670 0.355990 0.127200 31.898635 15.940669 7.457373 44.635859 -8.602898 -11.152307 9.747728 12.454566 -0.645022 2.174326 -1.025701 -0.138820 0.306230 -0.184440 -0.343830 
-0.389920 15.483120 -2.606430 -7.109422 -26.985718 1.873438 -16.120947 8.445776 7.095432 51.543310 -2.730560 -37.295152 -45.391349 41.690664 47.966025 1.780855 14.453407 -0.301716 0.732920 0.484560 0.670820 18.494883 -5.671495 4.758205 -14.858636 11.088361 -62.209701 -3.512201 -16.479402 81.874071 -2.459465 -12.662792 0.273983 0.251990 -0.263420 0.096150 -3.662699 -2.636550 -10.897652 -0.492639 -6.745966 54.027693 -4.454492 -2.900062 -8.377110 -0.143434 -10.001442 -10.067071 -25.328032 15.000144 33.442719 -7.222940 7.596100 -29.543830 -30.231892 -11.703693 0.484475 -11.081533 -6.660176 -2.495628 12.154782 -0.409003 -1.036916 -3.669468 2.495079 0.887970 -0.307190 0.370770 0.124320 31.414803 15.573550 7.246986 45.708353 -8.999439 -11.465776 7.894082 12.478002 -0.599819 2.198529 -0.992488 -0.129370 0.307060 -0.182820 -0.339560 
-0.476820 15.485400 -2.535670 -6.817905 -26.420024 0.376986 -16.065396 8.629590 6.962448 50.498676 -2.584009 -35.560910 -41.883680 41.534542 50.379426 1.799835 14.633468 -0.357220 0.722610 0.463100 0.667780 18.505215 -5.880209 4.652413 -14.854341 11.291780 -59.972652 -3.248997 -16.955539 82.764159 -2.516244 -12.829833 0.252329 0.236450 -0.255630 0.080790 -3.682906 -2.514237 -10.833539 -0.244176 -6.407431 52.667785 -5.059174 -2.773527 -8.095484 -0.024312 -9.692700 -10.209966 -25.715977 15.162836 35.969823 -5.906040 7.344300 -28.688520 -30.311819 -11.055987 0.679445 -13.468261 -5.070378 -2.423107 11.864146 -0.510252 -0.998404 -3.640166 2.484117 0.901330 -0.316000 0.366630 0.121370 31.174648 14.890851 7.135672 46.668126 -10.313825 -12.434674 6.014053 14.609247 -0.547650 2.178375 -0.974025 -0.138510 0.322430 -0.177810 -0.341680 
-0.560720 15.493640 -2.448720 -6.725159 -25.883699 -0.907237 -16.023670 8.828457 6.826690 49.516696 -2.299417 -34.012508 -37.799586 41.273747 53.297778 1.806352 14.862352 -0.435364 0.717650 0.450620 0.665440 18.505892 -6.070416 4.536376 -14.708149 11.511593 -57.688920 -2.981907 -17.413462 83.509207 -2.569040 -12.989490 0.217596 0.233670 -0.249270 0.074880 -3.673035 -2.466707 -10.753693 0.197951 -6.115821 50.688467 -5.522437 -2.612420 -7.675648 0.051319 -9.482672 -9.938911 -26.023985 15.244934 37.763561 -5.087050 7.041250 -28.058670 -30.431290 -9.694888 0.464626 -16.134015 -3.960973 -2.335755 11.618025 -0.754955 -0.985706 -3.617238 2.487102 0.912710 -0.318620 0.361670 0.115410 30.988063 13.483956 6.846224 46.927762 -11.826365 -13.880794 5.245287 18.849050 -0.500941 2.120571 -0.988810 -0.148330 0.331430 -0.168340 -0.345970 
